<?xml version="1.0" encoding="UTF-8"?>
<svg id="Layer_2" data-name="Layer 2" xmlns="http://www.w3.org/2000/svg" viewBox="0 0 103.32 103.3">
  <defs>
    <style>
      .cls-1 {
        fill: #fff;
        stroke-width: 0px;
      }
    </style>
  </defs>
  <g id="Layer_1-2" data-name="Layer 1">
    <g>
      <path class="cls-1" d="m103.04,16.47c-1.89-7.46-6.39-12.63-13.59-15.43-1.7-.66-3.48-.89-5.28-1.05H19.07c-2.43.16-4.76.68-6.94,1.81C4.58,5.69.12,11.73.07,20.34-.06,41.16.04,61.98.02,82.79c0,3.77.98,7.25,2.99,10.39,4.22,6.57,10.18,10.12,18.12,10.11,20.65-.02,41.3,0,61.95-.01,1.78,0,3.54-.18,5.26-.73,6.08-1.96,10.52-5.75,13.27-11.54.99-2.09,1.53-4.27,1.72-6.56V18.95c-.2-.81-.07-1.67-.27-2.47Zm-5.78,65.35c-.02,6.77-4.03,12.35-10.37,14.54-1.6.55-3.25.78-4.94.78-20.15,0-40.31.02-60.46,0-8.67-.01-15.3-6.64-15.31-15.31-.03-20.15-.03-40.31,0-60.46.01-8.67,6.64-15.3,15.31-15.31,20.15-.03,40.31-.03,60.46,0,8.67.01,15.29,6.64,15.31,15.31.03,10.11,0,20.22,0,30.33s.02,20.09,0,30.13Z"/>
      <path class="cls-1" d="m51.72,24.94c.42-.65.75-1.22,1.14-1.75,1.54-2.07,4.36-2.62,6.56-1.31,2.16,1.28,3.06,3.99,2.03,6.3-.39.88-.91,1.72-1.39,2.56-5.15,8.94-10.31,17.87-15.47,26.8-.18.31-.36.63-.54.94.22.31.51.17.75.17,3.09.01,6.18,0,9.27.01.38,0,.75-.09,1.02.39,1.81,3.2,3.66,6.37,5.56,9.66-.27.01-.42.03-.57.03-12.42,0-24.85,0-37.27,0-3.44,0-5.71-2.42-5.37-5.68.26-2.47,2.39-4.35,5.06-4.38,2.95-.03,5.91-.03,8.86,0,.67,0,1.06-.16,1.42-.78,4.21-7.35,8.45-14.69,12.7-22.02.33-.56.35-.96,0-1.53-1.16-1.92-2.34-3.84-3.34-5.84-1.74-3.46.72-7.39,4.51-7.32,1.6.03,2.93.68,3.9,1.96.4.53.73,1.12,1.17,1.79Z"/>
      <path class="cls-1" d="m76.96,68.73c1.13,1.96,2.2,3.77,3.22,5.61,1.32,2.4.83,5.08-1.16,6.6-2.53,1.94-5.87,1.24-7.58-1.63-1.81-3.05-3.56-6.14-5.34-9.22-3.87-6.7-7.72-13.41-11.61-20.1-.33-.56-.36-.95-.02-1.53,1.81-3.05,3.56-6.14,5.39-9.32,1.43,2.48,2.8,4.85,4.17,7.21,2.21,3.83,4.44,7.65,6.62,11.49.34.59.68.84,1.39.83,3.02-.04,6.04-.05,9.07,0,2.22.03,4.04,1.42,4.7,3.45.67,2.07,0,4.23-1.73,5.57-.91.7-1.95,1.03-3.09,1.04-1.27,0-2.55,0-4.02,0Z"/>
      <path class="cls-1" d="m35.82,72.76c-1.53,2.5-2.7,5-4.31,7.22-1.55,2.15-4.42,2.64-6.63,1.27-2.17-1.35-2.89-4.02-1.88-6.44.64-1.53,1.47-2.22,3.27-2.11,3.11.2,6.24.05,9.55.05Z"/>
    </g>
  </g>
</svg>