<?xml version="1.0" encoding="UTF-8"?>
<svg id="Layer_2" data-name="Layer 2" xmlns="http://www.w3.org/2000/svg" viewBox="0 0 31.17 26.92">
  <defs>
    <style>
      .cls-1 {
        fill: rgba(255, 255, 255, .85);
      }

      .cls-1, .cls-2 {
        stroke-width: 0px;
      }

      .cls-2 {
        fill: rgba(255, 255, 255, 0);
      }
    </style>
  </defs>
  <g id="Layer_1-2" data-name="Layer 1">
    <g>
      <rect class="cls-2" width="31.17" height="26.92"/>
      <path class="cls-1" d="m3.77,26.92h13.44c2.5,0,3.76-1.28,3.76-3.8V3.81C20.97,1.29,19.71,0,17.21,0H3.77C1.27,0,0,1.29,0,3.81v19.32c0,2.52,1.27,3.8,3.77,3.8Zm-2.03-3.84V3.85c0-1.37.72-2.11,2.12-2.11h13.26c1.4,0,2.12.74,2.12,2.11v19.24c0,1.37-.72,2.11-2.12,2.11H3.86c-1.4,0-2.12-.74-2.12-2.11Z"/>
      <path class="cls-1" d="m11.28,14.31h13.34l1.85-.06-1.06,1.02-2.15,2.06c-.18.16-.26.38-.26.59,0,.44.32.78.76.78.22,0,.4-.09.57-.25l4.25-4.37c.21-.21.28-.4.28-.62s-.07-.41-.28-.62l-4.25-4.37c-.17-.16-.34-.25-.57-.25-.44,0-.76.33-.76.78,0,.21.09.44.26.6l2.15,2.05,1.07,1.04-1.86-.07h-13.34c-.46,0-.84.39-.84.86s.38.85.84.85Z"/>
    </g>
  </g>
</svg>