<svg width="165" height="165" viewBox="0 0 165 165" fill="none" xmlns="http://www.w3.org/2000/svg">
<rect width="165" height="165" rx="20" fill="black"/>
<path d="M50.3809 60.0645L44.6191 61.2363C43.903 61.2363 43.3659 61.1387 43.0078 60.9434C42.6497 60.748 42.4707 60.3411 42.4707 59.7227C42.4707 58.2578 43.9681 56.3047 46.9629 53.8633C49.9577 51.3893 54.0918 49.127 59.3652 47.0762C64.6387 45.0254 69.3913 44 73.623 44C77.8548 44 80.8659 44.7324 82.6562 46.1973C84.4792 47.6621 85.3906 50.2174 85.3906 53.8633C85.3906 57.4766 84.6419 61.5944 83.1445 66.2168C81.6471 70.8392 79.4987 76.5684 76.6992 83.4043L85.1953 83.1602C87.474 83.1602 88.6133 83.8275 88.6133 85.1621C88.6133 86.1061 88.0762 86.8548 87.002 87.4082C84.2025 88.8405 79.7917 89.9147 73.7695 90.6309C71.4909 96.3275 69.7331 101.064 68.4961 104.84C67.2917 108.616 66.6895 111.692 66.6895 114.068L66.8359 117.291C66.8359 118.3 66.2826 119.098 65.1758 119.684C64.069 120.27 62.9134 120.562 61.709 120.562L42.1289 120.855C38.5156 120.855 36.3184 120.237 35.5371 119C35.179 118.382 35 117.438 35 116.168C35 114.866 35.2767 113.027 35.8301 110.65C36.3835 108.242 38.1413 103.538 41.1035 96.5391C44.0983 89.5078 46.8164 82.9648 49.2578 76.9102C51.7318 70.8555 52.9688 66.8678 52.9688 64.9473C52.9688 62.9941 52.7572 61.6921 52.334 61.041C51.9108 60.39 51.2598 60.0645 50.3809 60.0645ZM109.268 120.562L91.1523 120.855C87.5391 120.855 85.3418 120.237 84.5605 119C84.2025 118.382 84.0234 117.6 84.0234 116.656C84.0234 113.596 85.2116 108.225 87.5879 100.543C89.9642 92.8281 92.5358 84.6901 95.3027 76.1289C98.1022 67.5677 99.7298 61.8548 100.186 58.9902C100.641 56.1257 100.869 53.5866 100.869 51.373C100.869 49.1595 101.357 47.7598 102.334 47.1738C103.343 46.5553 105.28 46.2461 108.145 46.2461C111.042 46.2461 114.525 46.0996 118.594 45.8066C122.663 45.5137 125.381 45.3672 126.748 45.3672C128.148 45.3672 129.173 45.7578 129.824 46.5391C130.508 47.2878 130.85 48.248 130.85 49.4199C130.85 55.1491 128.896 63.3359 124.99 73.9805C123.363 78.4401 121.735 82.9323 120.107 87.457C116.169 98.2643 114.199 107.184 114.199 114.215L114.395 117.291C114.395 118.3 113.841 119.098 112.734 119.684C111.628 120.27 110.472 120.562 109.268 120.562Z" fill="white"/>
</svg>
